<svg width="75" height="75" viewBox="0 0 75 75" fill="none" xmlns="http://www.w3.org/2000/svg">
<circle cx="37.5" cy="37.5" r="37.5" fill="white"/>
<path d="M17.6 57.94C17.56 57.94 17.5 57.88 17.42 57.76C17.34 57.64 17.3 57.58 17.3 57.58C17.22 57.38 17.12 57.18 17 56.98C16.92 56.74 16.86 56.5 16.82 56.26C16.74 55.98 16.7 55.7 16.7 55.42C16.7 55.14 16.7 54.88 16.7 54.64C16.7 54.48 16.7 54.34 16.7 54.22C16.7 54.1 16.7 53.96 16.7 53.8C16.7 53.12 16.7 52.46 16.7 51.82C16.7 51.14 16.7 50.46 16.7 49.78C16.7 49.3 16.7 48.82 16.7 48.34C16.7 47.86 16.7 47.38 16.7 46.9C16.66 45.42 16.6 43.94 16.52 42.46C16.48 40.94 16.44 39.42 16.4 37.9C16.36 37.34 16.34 36.78 16.34 36.22C16.34 35.66 16.34 35.1 16.34 34.54C16.34 33.94 16.34 33.34 16.34 32.74C16.34 32.14 16.34 31.54 16.34 30.94C16.3 30.18 16.24 29.42 16.16 28.66C16.12 27.86 16.06 27.06 15.98 26.26C15.86 25.22 15.8 24.18 15.8 23.14C15.84 22.06 15.88 21 15.92 19.96C15.92 19.76 15.92 19.58 15.92 19.42C15.92 19.22 15.92 19.04 15.92 18.88C15.92 18.8 15.92 18.68 15.92 18.52C15.92 18.04 15.94 17.58 15.98 17.14C16.06 16.66 16.3 16.24 16.7 15.88C17.06 15.48 17.46 15.26 17.9 15.22C18.38 15.14 18.88 15.1 19.4 15.1C19.52 15.14 19.62 15.16 19.7 15.16C20.7 15.16 21.7 15.16 22.7 15.16C23.74 15.12 24.78 15.08 25.82 15.04C26.54 15.04 27.26 15.04 27.98 15.04C28.7 15.04 29.42 15.04 30.14 15.04C31.02 15.04 31.88 15.04 32.72 15.04C33.6 15.04 34.48 15.02 35.36 14.98C37.52 14.82 39.7 14.72 41.9 14.68C44.1 14.6 46.3 14.5 48.5 14.38C48.74 14.38 48.98 14.38 49.22 14.38C49.46 14.38 49.7 14.38 49.94 14.38C50.7 14.34 51.44 14.32 52.16 14.32C52.92 14.32 53.68 14.32 54.44 14.32C54.48 14.32 54.56 14.32 54.68 14.32C55.2 14.32 55.7 14.36 56.18 14.44C56.66 14.52 57.1 14.76 57.5 15.16C57.86 15.56 58.06 16 58.1 16.48C58.14 16.96 58.16 17.46 58.16 17.98C58.16 18.14 58.16 18.24 58.16 18.28C58.12 19.32 58.08 20.36 58.04 21.4C58.04 22.44 58.04 23.48 58.04 24.52C58.04 25.76 58.06 27 58.1 28.24C58.18 29.48 58.22 30.7 58.22 31.9C58.22 32.66 58.2 33.42 58.16 34.18C58.12 34.9 58.08 35.64 58.04 36.4C58 36.84 57.96 37.3 57.92 37.78C57.88 38.22 57.84 38.66 57.8 39.1C57.8 39.58 57.8 40.06 57.8 40.54C57.84 41.02 57.86 41.5 57.86 41.98C57.86 42.26 57.86 42.54 57.86 42.82C57.86 43.06 57.88 43.32 57.92 43.6C57.92 44.16 57.9 44.74 57.86 45.34C57.86 45.9 57.84 46.46 57.8 47.02C57.8 47.22 57.78 47.42 57.74 47.62C57.74 47.82 57.74 48.02 57.74 48.22C57.7 48.98 57.68 49.74 57.68 50.5C57.72 51.26 57.74 52.02 57.74 52.78C57.74 53.18 57.74 53.56 57.74 53.92C57.78 54.28 57.8 54.66 57.8 55.06C57.8 55.1 57.8 55.18 57.8 55.3C57.8 55.78 57.76 56.26 57.68 56.74C57.64 57.22 57.42 57.66 57.02 58.06C56.82 58.26 56.58 58.42 56.3 58.54C56.02 58.66 55.74 58.76 55.46 58.84C55.46 58.84 55.42 58.84 55.34 58.84C55.3 58.84 55.28 58.84 55.28 58.84C54.88 58.84 54.5 58.84 54.14 58.84C53.78 58.84 53.4 58.86 53 58.9C52.44 58.9 51.86 58.9 51.26 58.9C50.66 58.9 50.08 58.9 49.52 58.9C48.72 58.94 47.92 58.96 47.12 58.96C46.32 59 45.5 59.02 44.66 59.02C44.62 59.02 44.52 59.02 44.36 59.02C43.88 59.06 43.4 59.04 42.92 58.96C42.48 58.92 42.08 58.7 41.72 58.3C41.36 57.94 41.14 57.56 41.06 57.16C41.02 56.72 41.02 56.26 41.06 55.78C41.06 55.62 41.06 55.5 41.06 55.42C41.06 55.02 41.06 54.64 41.06 54.28C41.06 53.88 41.06 53.48 41.06 53.08C41.06 52.92 41.06 52.76 41.06 52.6C41.06 52.44 41.06 52.28 41.06 52.12C41.02 50.96 41.02 49.8 41.06 48.64C41.1 47.48 41.14 46.32 41.18 45.16C41.22 43.68 41.26 42.2 41.3 40.72C41.34 39.24 41.32 37.74 41.24 36.22C41.24 35.46 41.22 34.7 41.18 33.94C41.18 33.14 41.16 32.36 41.12 31.6C41.12 31.04 41.1 30.56 41.06 30.16C40.98 30.16 40.92 30.16 40.88 30.16C40.68 30.16 40.48 30.16 40.28 30.16C40.12 30.16 39.96 30.16 39.8 30.16C39.16 30.16 38.52 30.16 37.88 30.16C37.24 30.16 36.6 30.16 35.96 30.16C35.72 30.2 35.48 30.22 35.24 30.22C35 30.22 34.74 30.22 34.46 30.22C34.1 30.22 33.76 30.22 33.44 30.22C33.44 30.22 33.42 30.22 33.38 30.22C33.38 30.3 33.38 30.38 33.38 30.46C33.38 31.22 33.36 32 33.32 32.8C33.28 33.56 33.24 34.32 33.2 35.08C33.16 35.8 33.14 36.52 33.14 37.24C33.14 37.92 33.16 38.6 33.2 39.28C33.2 39.8 33.2 40.32 33.2 40.84C33.2 41.32 33.2 41.82 33.2 42.34C33.2 42.74 33.18 43.14 33.14 43.54C33.14 43.9 33.14 44.28 33.14 44.68C33.1 45.72 33.06 46.76 33.02 47.8C33.02 48.84 33.04 49.88 33.08 50.92C33.08 51.68 33.08 52.44 33.08 53.2C33.12 53.96 33.14 54.72 33.14 55.48C33.14 55.56 33.14 55.66 33.14 55.78C33.18 56.26 33.16 56.72 33.08 57.16C33.04 57.6 32.82 58 32.42 58.36C32.06 58.72 31.66 58.92 31.22 58.96C30.78 59 30.32 59.02 29.84 59.02C29.68 58.98 29.54 58.96 29.42 58.96C29.1 58.96 28.72 58.96 28.28 58.96C27.76 58.96 27.24 58.96 26.72 58.96C26.2 58.96 25.68 58.96 25.16 58.96C24.08 58.96 23 58.96 21.92 58.96C20.88 58.96 19.84 58.9 18.8 58.78C18.76 58.78 18.68 58.74 18.56 58.66C18.4 58.58 18.3 58.54 18.26 58.54L17.6 57.94ZM51.92 15.76H55.4C55.44 15.76 55.46 15.76 55.46 15.76C55.46 15.76 55.48 15.76 55.52 15.76L56.42 16.18C56.42 16.18 56.42 16.16 56.42 16.12C56.22 15.92 55.96 15.82 55.64 15.82C55.36 15.78 55.08 15.76 54.8 15.76C54.64 15.76 54.52 15.76 54.44 15.76C54 15.76 53.56 15.76 53.12 15.76C52.72 15.76 52.32 15.76 51.92 15.76ZM47.66 16.12L50.48 18.82L51.56 16.12H47.66ZM42.08 18.64L43.4 16.12H41.84C41.84 16.16 41.82 16.18 41.78 16.18L42.08 18.64ZM43.88 16.12L45.26 18.16L46.76 16.12H43.88ZM52.34 16.12L53.3 17.02L54.92 16.12H52.34ZM37.16 16.3L38.72 17.5C38.72 17.5 38.74 17.5 38.78 17.5C38.82 17.5 38.86 17.5 38.9 17.5L41.24 16.12C40.56 16.16 39.88 16.2 39.2 16.24C38.52 16.24 37.84 16.26 37.16 16.3ZM55.64 16.24L56.36 17.56L56.42 17.14L56.3 16.54L55.64 16.24ZM45.68 18.4L47.18 16.36L50.24 19.06L47.12 16.3L45.68 18.4ZM18.02 16.48C18.02 16.48 18 16.54 17.96 16.66C17.92 16.7 17.88 16.74 17.84 16.78L17.78 17.68L17.66 18.1L18.5 16.54C18.42 16.54 18.42 16.46 18.5 16.3L18.02 16.48ZM53.84 17.14L56 17.62L55.28 16.3L53.84 17.14ZM51.08 18.76L51.98 16.42L52.94 17.2L51.86 16.36L51.08 18.76ZM35 19.24L36.26 16.36C35.98 16.36 35.7 16.38 35.42 16.42C34.82 16.46 34.16 16.48 33.44 16.48L35 19.24ZM35.48 19L38.3 17.68L36.68 16.36L35.48 19ZM39.32 17.68L41.72 18.7L41.48 16.42L39.32 17.68ZM42.44 18.76L44.9 18.28L43.64 16.48L42.44 18.76ZM28.88 17.98L29.24 16.48C29 16.48 28.74 16.48 28.46 16.48C28.22 16.48 27.96 16.48 27.68 16.48L28.88 17.98ZM29.84 16.48L30.8 18.94L32.54 16.48C32.14 16.48 31.74 16.48 31.34 16.48C30.98 16.48 30.6 16.48 30.2 16.48C30.04 16.48 29.92 16.48 29.84 16.48ZM25.52 18.58L28.52 18.04L27.26 16.48C27.22 16.48 27.16 16.48 27.08 16.48L25.52 18.58ZM31.16 19L34.58 19.18L33.02 16.48C33.02 16.48 33 16.48 32.96 16.48L31.16 19ZM25.04 18.7L26.66 16.48C26.38 16.48 26.12 16.48 25.88 16.48C25.24 16.52 24.62 16.54 24.02 16.54C23.42 16.54 22.8 16.56 22.16 16.6L25.04 18.7ZM17.72 18.88L18.92 16.54C18.88 16.54 18.84 16.54 18.8 16.54L17.72 18.88ZM21.32 18.52L19.34 16.54C19.3 16.54 19.28 16.54 19.28 16.54C19.24 16.54 19.2 16.54 19.16 16.54L21.32 18.52ZM19.88 16.6L21.44 18.1L21.2 16.6C20.76 16.6 20.32 16.6 19.88 16.6ZM21.86 18.4L24.2 18.64L21.62 16.6L21.86 18.4ZM17.96 16.66C18.08 16.62 18.22 16.6 18.38 16.6L17.78 17.68L17.96 16.66ZM29.24 18.1L30.26 18.64L29.54 16.78L29.24 18.1ZM53.66 17.62L55.52 21.16L56.18 18.16L53.66 17.62ZM53.18 17.8L51.14 22L55.22 21.64L53.18 17.8ZM50.84 19.36L50.9 21.34L52.52 18.1L50.84 19.36ZM37.34 20.86L39.98 22.18L38.72 18.34L37.34 20.86ZM25.4 19.12L26.3 20.5L28.22 18.58L25.4 19.12ZM29.18 18.58L29 20.56L30.32 19.24L29.18 18.58ZM42.32 19.24L43.28 22.42L44.9 18.76L42.32 19.24ZM48.38 21.64L50.18 19.42L45.92 18.82L48.38 21.64ZM28.46 20.92L28.64 18.82L26.78 20.68L28.46 20.92ZM47.96 21.88L45.38 18.88L43.64 22.78L47.96 21.88ZM22.64 20.98L24.44 19.12L21.98 18.94L22.64 20.98ZM19.1 21.64L21.14 18.94L17.78 19.18L19.1 21.64ZM22.22 21.28L21.56 19.18L19.64 21.7L22.22 21.28ZM25.82 20.68L24.92 19.3L23.18 21.1L25.82 20.68ZM31.22 19.48L32.66 21.34L34.4 19.66L31.22 19.48ZM32.06 21.4L30.74 19.54L29.24 21.04L32.06 21.4ZM42.86 22.84L41.96 19.72L40.76 22.48L42.86 22.84ZM33.32 21.34L36.44 20.86L35 19.78L33.32 21.34ZM18.8 22L17.6 19.9L17.54 22.96L18.8 22ZM50.48 22L50.36 19.9L48.86 21.82L50.48 22ZM56.6 22.84C56.6 22.76 56.66 22.76 56.78 22.84V22.3L56.66 20.86C56.62 21.5 56.6 22.1 56.6 22.66L55.76 21.64C55.76 21.68 55.78 21.7 55.82 21.7C55.82 21.74 55.82 21.76 55.82 21.76C55.82 21.8 55.82 21.84 55.82 21.88L56.6 22.84ZM28.52 21.34C28.48 21.34 28.46 21.32 28.46 21.28L26.42 21.04L28.64 25.42L28.52 21.34ZM24.08 24.52L26 21.04L22.7 21.64L24.08 24.52ZM37.4 21.28L39.62 24.58L40.22 22.84C40.22 22.8 40.2 22.78 40.16 22.78C40.16 22.78 40.16 22.74 40.16 22.66L37.4 21.28ZM24.44 24.58L28.34 25.6L26.24 21.4L24.44 24.58ZM39.26 24.64L37.04 21.46L35.3 24.88L39.26 24.64ZM21.14 25.84L22.34 21.64L19.28 22.18L21.14 25.84ZM50.96 22.42L53.96 26.5L55.4 21.94L50.96 22.42ZM29 25.72L31.46 25.54L28.94 22L29 25.72ZM21.5 25.72L23.78 24.64L22.58 22.12L21.5 25.72ZM50.54 22.42C50.54 22.42 50.52 22.42 50.48 22.42L48.56 22.12L49.94 25.3L50.54 22.42ZM44.9 24.34C44.9 24.3 44.94 24.28 45.02 24.28L47.84 22.24L43.46 23.2L44.9 24.34ZM34.46 24.94L32.72 22.36L32.18 25.48L34.46 24.94ZM45.5 24.4L49.58 25.3L48.26 22.36L45.5 24.4ZM17.42 25.3L18.74 22.48L17.54 23.5C17.54 23.58 17.5 23.64 17.42 23.68V25.3ZM56.6 23.38L55.94 22.6L56.6 24.76C56.6 24.68 56.6 24.6 56.6 24.52C56.6 24.16 56.6 23.78 56.6 23.38ZM17.66 25.6L20.72 25.84L19.1 22.6L17.66 25.6ZM55.58 22.66L54.44 26.26L56.3 25.18L55.58 22.66ZM43.04 23.32C43.04 23.28 43.02 23.24 42.98 23.2L40.7 22.84L43.22 25.6L43.04 23.32ZM50.84 22.84L50.3 25.48L53.42 26.32L50.84 22.84ZM39.98 24.7L42.62 25.42L40.52 23.14L39.98 24.7ZM43.46 23.68L43.58 25.36L44.54 24.52L43.46 23.68ZM49.7 25.84L45.56 24.88L48.62 28.54L49.7 25.84ZM44.66 25.06L43.64 25.96L44.54 27.58L44.66 25.06ZM28.4 26.14L24.5 25.12L26.24 29.62L28.4 26.14ZM48.08 28.66L45.14 25.18L45.02 28.24L48.08 28.66ZM42.98 26.02L40.1 25.24L41.36 28.42L42.98 26.02ZM23.6 25.24L21.38 26.26L21.92 29.08L23.6 25.24ZM40.94 28.72L39.62 25.3L36.68 28.54L40.94 28.72ZM25.82 29.92L24.08 25.36L22.16 29.68L25.82 29.92ZM35.84 28.6L34.88 25.9L33.92 28.78C34.08 28.78 34.26 28.78 34.46 28.78L35.84 28.6ZM56 25.9L54.26 26.86L54.44 28.84L56 25.9ZM51.8 29.44L53.6 26.86L50.42 26.02L51.8 29.44ZM31.46 26.02L29.12 26.2L30.08 28.84L31.46 26.02ZM56.72 29.14C56.72 29.02 56.72 28.82 56.72 28.54L56.42 26.08L54.68 29.38L56.72 29.14ZM20.66 26.32L17.72 26.14L19.04 28.54L20.66 26.32ZM51.32 29.56L50 26.32L48.98 28.84L51.32 29.56ZM33.08 28.72L31.88 26.32L30.5 29.14L32 29.02C32 28.98 32.02 28.96 32.06 28.96C32.22 28.76 32.38 28.66 32.54 28.66C32.7 28.66 32.86 28.68 33.02 28.72C33.06 28.72 33.08 28.72 33.08 28.72ZM44.42 28.24L43.34 26.38L41.78 28.66C41.82 28.66 41.84 28.66 41.84 28.66L44.42 28.24ZM29.78 29.26L28.7 26.5L26.66 29.8L29.78 29.26ZM21.5 29.56L21.02 26.74L19.4 28.84L21.5 29.56ZM18.68 28.9L17.54 26.8V27.64C17.58 28 17.6 28.36 17.6 28.72C17.64 29.08 17.68 29.46 17.72 29.86L18.68 28.9ZM54.02 29.44L53.84 27.4L52.22 29.62L54.02 29.44ZM42.56 31.06L44.48 28.6L42.38 28.9C42.38 28.94 42.4 28.98 42.44 29.02C42.48 29.14 42.5 29.2 42.5 29.2C42.5 29.52 42.5 29.84 42.5 30.16C42.54 30.48 42.56 30.78 42.56 31.06ZM45.14 32.14L48.44 29.08L44.9 28.66L45.14 32.14ZM42.56 31.72L44.78 32.08L44.6 29.08L42.56 31.66C42.56 31.66 42.56 31.68 42.56 31.72ZM19.88 33.4L21.62 30.04C21.58 30.04 21.56 30.02 21.56 29.98L19.16 29.2L19.88 33.4ZM51.5 30.04C51.5 30.04 51.5 30.02 51.5 29.98L48.86 29.2C48.86 29.2 48.84 29.2 48.8 29.2L49.34 33.64L51.5 30.04ZM31.82 29.38L30.38 29.56L31.94 31.06C31.94 30.82 31.94 30.6 31.94 30.4C31.94 30.32 31.92 30.16 31.88 29.92C31.84 29.68 31.82 29.5 31.82 29.38ZM17.78 31.48L18.62 29.44L17.72 30.28C17.72 30.48 17.74 30.68 17.78 30.88C17.78 31.08 17.78 31.28 17.78 31.48ZM45.44 32.32L48.98 33.64L48.5 29.5L45.44 32.32ZM56.78 32.92V31.48C56.78 31.16 56.76 30.84 56.72 30.52C56.72 30.16 56.72 29.82 56.72 29.5L54.5 29.8L56.78 33.04C56.78 32.96 56.78 32.92 56.78 32.92ZM29.72 29.62L26.42 30.22L27.86 31.48C27.86 31.48 27.9 31.48 27.98 31.48L29.72 29.62ZM30.08 29.8L28.52 31.48L31.7 31.36L30.08 29.8ZM17.78 32.38C17.78 32.5 17.78 32.64 17.78 32.8L19.52 33.4L18.86 29.8L17.78 32.38ZM51.92 30.04L52.76 31.66L54.02 29.8L51.92 30.04ZM24.02 32.98L25.94 30.28L22.04 30.04L24.02 32.98ZM54.26 30.1L53.12 31.78L56.36 33.04L54.26 30.1ZM21.8 30.4L20.24 33.46L23.54 33.1L21.8 30.4ZM50 33.28L52.46 31.84L51.74 30.4L50 33.28ZM26.24 30.52L24.62 32.74L27.5 31.66L26.24 30.52ZM28.34 31.96L30.26 35.08L31.88 31.84L28.34 31.96ZM24.38 33.34L26.9 35.92L27.62 32.08L24.38 33.34ZM42.62 32.2C42.62 32.24 42.62 32.26 42.62 32.26C42.62 32.26 42.62 32.28 42.62 32.32L44.96 36.22L44.78 32.56L42.62 32.2ZM53.12 32.32L54.2 35.74L56.54 33.64L53.12 32.32ZM52.52 32.32L49.7 34.06L52.28 36.28L52.52 32.32ZM29.9 35.44L28.04 32.38L27.38 36.1L29.9 35.44ZM31.82 32.98L30.62 35.44L31.7 35.8C31.7 35.56 31.72 35.3 31.76 35.02C31.76 34.7 31.76 34.38 31.76 34.06C31.8 33.7 31.82 33.34 31.82 32.98ZM47.48 35.44L45.32 33.04L45.5 36.76L47.48 35.44ZM53.78 36.04L52.94 33.22L52.7 36.4L53.78 36.04ZM42.62 33.28C42.62 33.76 42.62 34.24 42.62 34.72C42.66 35.2 42.68 35.7 42.68 36.22L44.72 36.76L42.62 33.28ZM18.56 34.96L19.4 33.88L17.78 33.34L18.56 34.96ZM22.28 35.02L23.42 33.58L20.54 33.94L22.28 35.02ZM21.5 35.08L19.88 34.06L19.04 35.14L21.5 35.08ZM56.72 34.18L54.5 36.1L56.54 37.06C56.54 36.94 56.54 36.82 56.54 36.7C56.54 36.58 56.56 36.46 56.6 36.34C56.6 35.98 56.62 35.62 56.66 35.26C56.7 34.9 56.72 34.54 56.72 34.18ZM51.5 36.28L49.28 34.36L48.32 35.38L51.5 36.28ZM17.78 35.68L18.2 35.32L17.78 34.48C17.78 34.68 17.78 34.88 17.78 35.08C17.78 35.28 17.78 35.48 17.78 35.68ZM20 39.94L22.1 35.44L18.68 35.62L20 39.94ZM52.16 36.82L48.02 35.68L49.04 39.7L52.16 36.82ZM17.84 38.08L18.32 35.68L17.78 36.16C17.78 36.8 17.8 37.36 17.84 37.84C17.84 37.88 17.84 37.88 17.84 37.84C17.84 37.88 17.84 37.9 17.84 37.9C17.84 37.94 17.84 38 17.84 38.08ZM30.08 35.74L27.32 36.46C27.32 36.5 27.3 36.54 27.26 36.58L28.34 40.66L30.08 35.74ZM30.44 35.74L31.76 39.16C31.72 38.68 31.7 38.2 31.7 37.72C31.7 37.2 31.7 36.7 31.7 36.22L30.44 35.74ZM45.5 37.18L45.62 38.38L47.36 35.92L45.5 37.18ZM20.36 40L23.42 39.94L22.28 35.98L20.36 40ZM45.8 38.74L48.56 39.58L47.72 36.04L45.8 38.74ZM30.26 36.28L28.76 40.66L31.46 39.7L30.26 36.28ZM17.9 40.36L19.7 40.06L18.56 36.34L17.9 39.58C17.9 39.82 17.9 40.08 17.9 40.36ZM53.84 36.4L52.7 36.82C52.7 36.86 52.66 36.92 52.58 37L52.52 38.86L53.84 36.4ZM56.48 37.48L54.38 36.46L56.36 40.12C56.36 39.76 56.36 39.4 56.36 39.04C56.4 38.6 56.44 38.08 56.48 37.48ZM42.14 40.48L42.74 39.76C42.74 39.84 42.74 39.9 42.74 39.94L44.9 37.24L42.74 39.76C42.74 39.24 42.74 38.72 42.74 38.2C42.74 37.68 42.72 37.14 42.68 36.58L42.2 36.46C42.16 36.46 42.14 36.48 42.14 36.52V40.48ZM54.08 36.64L52.76 39.22L56.18 40.54L54.08 36.64ZM24.2 40L27.98 40.78L26.96 36.88L24.2 40ZM52.22 37.3L49.7 39.58L52.16 39.16L52.22 37.3ZM45.32 38.8L45.08 37.6L42.74 40.36C42.74 40.4 42.8 40.38 42.92 40.3L45.08 37.78L45.32 38.8ZM47.66 42.46L48.62 40.12L45.92 39.28L47.66 42.46ZM47.3 42.76L45.44 39.34L43.76 42.52L47.3 42.76ZM43.34 42.28L44.78 39.52L42.74 40.84C42.74 41.04 42.74 41.26 42.74 41.5L43.34 42.28ZM49.22 40.12L50.54 43.54L52.04 39.64L49.22 40.12ZM55.04 43.42L52.46 39.82L50.9 43.9L55.04 43.42ZM53.06 39.88L55.4 43.12L56.36 41.14L53.06 39.88ZM28.82 41.14L30.74 42.46L31.4 40.24L28.82 41.14ZM23.36 40.42L20.36 40.48L21.62 44.02L23.36 40.42ZM27.62 41.2L24.2 40.54L25.34 42.28L27.62 41.2ZM17.96 40.84C17.96 41 17.96 41.18 17.96 41.38L18.5 42.76L19.58 40.54L17.96 40.84ZM50.12 43.78L48.92 40.6L48.02 42.94L50.12 43.78ZM31.76 40.66C31.76 41.26 31.76 41.82 31.76 42.34C31.76 42.54 31.76 42.74 31.76 42.94L31.04 42.7C31.04 42.74 31.04 42.76 31.04 42.76C31.08 42.8 31.1 42.82 31.1 42.82L31.76 43.06C31.76 43.02 31.76 42.98 31.76 42.94L32.06 43.06V42.58L31.76 40.66ZM24.92 42.52L23.78 40.66L22.1 44.02L24.92 42.52ZM21.14 44.2L19.94 40.84L18.8 43.24L21.14 44.2ZM30.02 42.58L28.34 41.38L26.24 42.4L30.02 42.58ZM56.42 42.16L55.88 43.3H56.42C56.42 43.1 56.42 42.92 56.42 42.76C56.42 42.56 56.42 42.36 56.42 42.16ZM42.68 42.76L43.04 42.64L42.74 42.22C42.7 42.42 42.68 42.6 42.68 42.76ZM18.2 43.3L18.02 42.82C18.02 43.1 18.08 43.26 18.2 43.3ZM25.1 42.82L21.8 44.68L24.8 47.5L25.1 42.82ZM30.62 43L25.52 42.82L27.2 47.08L30.62 43ZM46.04 46.66L47.48 43.18L43.64 42.82L46.04 46.66ZM42.62 45.34L43.22 42.94L42.68 43.18C42.68 43.5 42.66 43.84 42.62 44.2C42.62 44.52 42.62 44.84 42.62 45.16C42.62 45.24 42.62 45.3 42.62 45.34ZM31.76 43.42L31.1 43.24L31.7 44.86C31.7 44.82 31.7 44.76 31.7 44.68C31.7 44.44 31.7 44.22 31.7 44.02C31.74 43.82 31.76 43.62 31.76 43.42ZM50.36 44.38C50.36 44.34 50.34 44.3 50.3 44.26L47.96 43.3L49.52 46.96L50.36 44.38ZM42.56 46.96C42.56 47.24 42.56 47.48 42.56 47.68L45.68 46.78L43.52 43.3L42.56 46.96ZM30.8 43.36L27.68 47.02L31.64 46.72C31.64 46.48 31.66 46.2 31.7 45.88L30.8 43.36ZM21.32 44.62L18.74 43.6L19.88 46.06C19.92 46.06 19.94 46.06 19.94 46.06L21.32 44.62ZM55.7 43.72C55.7 43.72 55.68 43.74 55.64 43.78L56.42 45.94C56.42 45.54 56.42 45.16 56.42 44.8C56.46 44.4 56.48 44.02 56.48 43.66L55.7 43.72ZM25.46 43.66L25.16 47.5L26.84 47.14L25.46 43.66ZM47.72 43.66L46.4 46.72L49.16 47.02L47.72 43.66ZM54.02 46L55.22 43.72L50.9 44.26L54.02 46ZM54.44 46.06L56.3 46.66L55.4 44.2L54.44 46.06ZM18.62 44.2L18.2 47.38L19.58 46.24L18.62 44.2ZM50.66 44.56L49.88 46.96L53.42 46.12L50.66 44.56ZM21.56 44.98L20.36 46.18L24.02 47.26L21.56 44.98ZM54.32 46.54L54.74 50.98L56.36 47.14L54.32 46.54ZM51.38 49.3L53.48 46.6L49.94 47.44L51.38 49.3ZM24.5 47.92L20.54 46.72L23 49.9L24.5 47.92ZM54.26 51.46L53.9 46.84L51.74 49.66L54.26 51.46ZM20 46.84L19.46 49.72L22.46 49.96L20 46.84ZM18.2 48.04L19.04 49.3L19.52 46.9L18.2 48.04ZM31.64 47.08C31.64 47.36 31.64 47.6 31.64 47.8L32.06 47.08H31.64ZM49.22 47.5L46.46 47.2L48.38 51.22L49.22 47.5ZM45.02 51.28L45.74 47.26L42.5 48.22C42.5 48.26 42.5 48.3 42.5 48.34L45.02 51.28ZM26.9 47.62L25.28 47.98L27.14 51.04L26.9 47.62ZM48.08 51.7L46.16 47.68L45.44 51.58L48.08 51.7ZM51.02 49.66L49.64 47.86L48.8 51.34L51.02 49.66ZM29.78 50.44L27.44 47.98L27.68 51.58L29.78 50.44ZM26.9 51.52L24.92 48.22L23.36 50.14L26.9 51.52ZM42.14 50.26L42.5 50.38C42.5 50.42 42.5 50.48 42.5 50.56L44.54 51.28L42.5 50.38C42.5 49.9 42.5 49.4 42.5 48.88L42.14 48.46V50.26ZM56.3 51.52C56.26 51 56.24 50.5 56.24 50.02C56.28 49.5 56.3 48.98 56.3 48.46L54.92 51.64L56.3 51.52ZM31.64 48.52L30.62 50.26H31.64C31.64 49.7 31.64 49.12 31.64 48.52ZM18.8 49.84L18.14 48.82C18.14 48.98 18.14 49.14 18.14 49.3C18.14 49.46 18.14 49.62 18.14 49.78C18.14 49.86 18.14 49.94 18.14 50.02L18.8 49.84ZM54.32 52.06C54.32 52.02 54.32 51.98 54.32 51.94L51.56 50.02L52.22 54.88L54.32 52.06ZM49.88 54.34L51.14 50.02L48.68 52C48.68 52.04 48.66 52.06 48.62 52.06L49.88 54.34ZM18.14 52.42L18.92 50.14L18.14 50.38C18.14 50.74 18.14 51.08 18.14 51.4C18.14 51.72 18.14 52.06 18.14 52.42ZM19.34 50.2L20.06 54.88L22.64 50.38L19.34 50.2ZM24.38 54.22L27.2 52L23.3 50.5L24.38 54.22ZM30.44 50.62C30.4 50.62 30.38 50.62 30.38 50.62L31.7 53.56C31.66 53.12 31.64 52.68 31.64 52.24C31.64 51.8 31.64 51.36 31.64 50.92C31.64 50.8 31.64 50.7 31.64 50.62H30.44ZM22.88 50.74L20.42 55.24L23.96 54.4L22.88 50.74ZM50.24 54.46L51.86 54.88L51.32 50.86L50.24 54.46ZM22.94 50.86L23.84 54.4L20.48 55.06L22.94 50.86ZM19.04 50.92L18.2 53.26L19.64 54.76L19.04 50.92ZM27.44 53.38L31.7 54.46L30.14 50.92L27.44 53.38ZM42.86 53.02C42.86 53.02 42.88 53.02 42.92 53.02L44.78 51.94L42.5 50.92C42.5 51.16 42.5 51.42 42.5 51.7L42.86 53.02ZM27.68 52C27.68 52.08 27.62 52.18 27.5 52.3L27.2 53.08L29.42 51.04L27.68 52ZM56.3 51.88L54.8 52.06L56.3 54.1C56.3 53.86 56.3 53.64 56.3 53.44C56.3 53.24 56.3 53.02 56.3 52.78C56.3 52.66 56.3 52.52 56.3 52.36C56.3 52.2 56.3 52.04 56.3 51.88ZM45.62 53.98L48.08 52.06L45.32 51.94C45.32 51.98 45.3 52 45.26 52L45.62 53.98ZM43.34 53.2L45.2 53.86L44.96 52.24L43.34 53.2ZM17.42 54.04L17.66 53.32L17.42 52.24V54.04ZM46.1 54.04L49.52 54.34L48.38 52.3L46.1 54.04ZM54.56 52.36L52.64 54.94H56.36C56.36 54.86 56.36 54.78 56.36 54.7L54.56 52.36ZM26.96 52.66L25.52 53.8L26.78 53.32L26.96 52.66ZM45.2 54.4L43.22 53.68L44.72 57.16L45.2 54.4ZM31.7 55.12C31.7 55 31.7 54.94 31.7 54.94L27.62 53.92L30.62 57.58L31.7 55.12ZM24.44 54.7L25.28 57.04L26.54 53.92L24.44 54.7ZM30.02 57.58L27.02 53.98L25.64 57.46L26.12 57.52C26.48 57.52 26.84 57.52 27.2 57.52C27.6 57.52 27.98 57.52 28.34 57.52C28.78 57.52 29.16 57.52 29.48 57.52C29.56 57.52 29.7 57.54 29.9 57.58C29.94 57.58 29.98 57.58 30.02 57.58ZM42.74 57.34L44.12 57.64C44.16 57.64 44.22 57.62 44.3 57.58C44.34 57.58 44.36 57.58 44.36 57.58L42.98 54.28L42.74 57.34ZM18.56 56.8L19.52 57.4L18.14 54.4C18.14 54.4 18.14 54.44 18.14 54.52C18.14 54.76 18.14 55 18.14 55.24C18.14 55.48 18.16 55.72 18.2 55.96C18.24 56.12 18.28 56.28 18.32 56.44C18.4 56.56 18.48 56.68 18.56 56.8ZM19.76 55.54L18.68 54.46L19.82 56.86L19.76 55.54ZM49.46 54.82L45.86 54.52L47.24 57.52L49.46 54.82ZM51.68 57.22L51.92 55.36L50.42 55L51.68 57.22ZM46.7 57.52L45.62 55.06L45.14 57.58C45.38 57.58 45.64 57.58 45.92 57.58C46.2 57.58 46.46 57.56 46.7 57.52ZM24.92 57.52L24.08 55.18L22.94 57.52C23.26 57.52 23.56 57.52 23.84 57.52C24.16 57.52 24.52 57.52 24.92 57.52ZM56.36 55.66C56.36 55.58 56.36 55.5 56.36 55.42H52.76L54.74 57.4C54.82 57.4 54.88 57.4 54.92 57.4L56.36 55.66ZM56.78 55.66L56.36 56.26C56.32 56.62 56.2 56.88 56 57.04C55.92 57.12 55.82 57.2 55.7 57.28C55.62 57.32 55.48 57.4 55.28 57.52L56.48 57.28L56.78 55.66ZM54.08 57.4L52.34 55.72L52.16 57.46C52.52 57.46 52.8 57.46 53 57.46C53.4 57.42 53.76 57.4 54.08 57.4ZM21.62 57.52L20.24 56.02L20.3 57.46C20.74 57.46 21.18 57.48 21.62 57.52ZM31.64 57.04L31.7 56.32L31.16 57.46C31.28 57.42 31.38 57.38 31.46 57.34C31.54 57.26 31.6 57.16 31.64 57.04ZM51.62 57.82L51.44 57.46C51.08 57.46 50.74 57.46 50.42 57.46C50.1 57.46 49.78 57.46 49.46 57.46C49.18 57.46 48.88 57.48 48.56 57.52C48.28 57.52 48 57.52 47.72 57.52L47.42 57.88L51.62 57.82Z" fill="#007FFF"/>
</svg>
